<mxfile host="app.diagrams.net" modified="2024-07-22T01:59:45.831Z" agent="Mozilla/5.0 (Windows NT 10.0; Win64; x64) AppleWebKit/537.36 (KHTML, like Gecko) Chrome/125.0.0.0 Safari/537.36" etag="eE1NhmkeDEKvUSxoUvTy" version="24.7.1" type="github">
  <diagram name="第 1 页" id="S9SL7yQar0k7CIj5eQhP">
    <mxGraphModel dx="1877" dy="1731" grid="1" gridSize="10" guides="1" tooltips="1" connect="1" arrows="1" fold="1" page="1" pageScale="1" pageWidth="827" pageHeight="1169" math="0" shadow="0">
      <root>
        <mxCell id="0" />
        <mxCell id="1" parent="0" />
        <mxCell id="2" value="10.20.10.39" style="rounded=1;absoluteArcSize=1;arcSize=14;whiteSpace=wrap;strokeWidth=2;" parent="1" vertex="1">
          <mxGeometry y="250" width="100" height="33" as="geometry" />
        </mxCell>
        <mxCell id="3" value="10.20.10.37" style="rounded=1;absoluteArcSize=1;arcSize=14;whiteSpace=wrap;strokeWidth=2;" parent="1" vertex="1">
          <mxGeometry x="345" width="139" height="33" as="geometry" />
        </mxCell>
        <mxCell id="4" value="10.20.10.38" style="rounded=1;absoluteArcSize=1;arcSize=14;whiteSpace=wrap;strokeWidth=2;" parent="1" vertex="1">
          <mxGeometry x="345" y="83" width="139" height="33" as="geometry" />
        </mxCell>
        <mxCell id="5" value="10.20.10.41" style="rounded=1;absoluteArcSize=1;arcSize=14;whiteSpace=wrap;strokeWidth=2;" parent="1" vertex="1">
          <mxGeometry x="345" y="167" width="139" height="33" as="geometry" />
        </mxCell>
        <mxCell id="6" value="10.20.10.47" style="rounded=1;absoluteArcSize=1;arcSize=14;whiteSpace=wrap;strokeWidth=2;" parent="1" vertex="1">
          <mxGeometry x="345" y="250" width="139" height="33" as="geometry" />
        </mxCell>
        <mxCell id="7" value="10.20.10.85" style="rounded=1;absoluteArcSize=1;arcSize=14;whiteSpace=wrap;strokeWidth=2;" parent="1" vertex="1">
          <mxGeometry x="345" y="334" width="139" height="33" as="geometry" />
        </mxCell>
        <mxCell id="8" value="10.20.6.2" style="rounded=1;absoluteArcSize=1;arcSize=14;whiteSpace=wrap;strokeWidth=2;" parent="1" vertex="1">
          <mxGeometry x="345" y="417" width="139" height="33" as="geometry" />
        </mxCell>
        <mxCell id="9" value="10.20.6.3" style="rounded=1;absoluteArcSize=1;arcSize=14;whiteSpace=wrap;strokeWidth=2;" parent="1" vertex="1">
          <mxGeometry x="345" y="500" width="139" height="33" as="geometry" />
        </mxCell>
        <mxCell id="10" value="WC Service" style="ellipse;aspect=fixed;strokeWidth=2;whiteSpace=wrap;" parent="1" vertex="1">
          <mxGeometry x="150" y="219" width="96" height="96" as="geometry" />
        </mxCell>
        <mxCell id="11" value="" style="curved=1;startArrow=none;endArrow=block;exitX=1;exitY=0.51;entryX=0;entryY=0.5;" parent="1" source="2" target="10" edge="1">
          <mxGeometry relative="1" as="geometry">
            <Array as="points" />
          </mxGeometry>
        </mxCell>
        <mxCell id="12" value="Master" style="curved=1;startArrow=none;endArrow=block;exitX=0.69;exitY=0;entryX=0;entryY=0.51;" parent="1" source="10" target="3" edge="1">
          <mxGeometry relative="1" as="geometry">
            <Array as="points">
              <mxPoint x="295" y="17" />
            </Array>
          </mxGeometry>
        </mxCell>
        <mxCell id="13" value="Master" style="curved=1;startArrow=none;endArrow=block;exitX=0.79;exitY=0;entryX=0;entryY=0.52;" parent="1" source="10" target="4" edge="1">
          <mxGeometry relative="1" as="geometry">
            <Array as="points">
              <mxPoint x="295" y="100" />
            </Array>
          </mxGeometry>
        </mxCell>
        <mxCell id="14" value="Master" style="curved=1;startArrow=none;endArrow=block;exitX=1;exitY=0.07;entryX=0;entryY=0.5;" parent="1" source="10" target="5" edge="1">
          <mxGeometry relative="1" as="geometry">
            <Array as="points">
              <mxPoint x="295" y="184" />
            </Array>
          </mxGeometry>
        </mxCell>
        <mxCell id="15" value="Master" style="curved=1;startArrow=none;endArrow=block;exitX=1;exitY=0.5;entryX=0;entryY=0.51;" parent="1" source="10" target="6" edge="1">
          <mxGeometry relative="1" as="geometry">
            <Array as="points" />
          </mxGeometry>
        </mxCell>
        <mxCell id="16" value="Master" style="curved=1;startArrow=none;endArrow=block;exitX=1;exitY=0.93;entryX=0;entryY=0.49;" parent="1" source="10" target="7" edge="1">
          <mxGeometry relative="1" as="geometry">
            <Array as="points">
              <mxPoint x="295" y="350" />
            </Array>
          </mxGeometry>
        </mxCell>
        <mxCell id="17" value="Master" style="curved=1;startArrow=none;endArrow=block;exitX=0.79;exitY=1;entryX=0;entryY=0.51;" parent="1" source="10" target="8" edge="1">
          <mxGeometry relative="1" as="geometry">
            <Array as="points">
              <mxPoint x="295" y="434" />
            </Array>
          </mxGeometry>
        </mxCell>
        <mxCell id="18" value="Master" style="curved=1;startArrow=none;endArrow=block;exitX=0.69;exitY=1;entryX=0;entryY=0.52;" parent="1" source="10" target="9" edge="1">
          <mxGeometry relative="1" as="geometry">
            <Array as="points">
              <mxPoint x="295" y="517" />
            </Array>
          </mxGeometry>
        </mxCell>
      </root>
    </mxGraphModel>
  </diagram>
</mxfile>
